<svg width="60" height="60" viewBox="0 0 60 60" fill="none" xmlns="http://www.w3.org/2000/svg">
<path d="M27.9413 3.43551C28.8732 1.88035 31.1268 1.88035 32.0587 3.43551L36.4324 10.7344C36.9759 11.6413 38.0489 12.0858 39.0745 11.8287L47.3282 9.76037C49.0868 9.31966 50.6803 10.9132 50.2396 12.6718L48.1713 20.9255C47.9142 21.9511 48.3587 23.0241 49.2656 23.5676L56.5645 27.9413C58.1196 28.8732 58.1196 31.1268 56.5645 32.0587L49.2656 36.4324C48.3587 36.9759 47.9142 38.0489 48.1713 39.0745L50.2396 47.3282C50.6803 49.0868 49.0868 50.6803 47.3282 50.2396L39.0745 48.1713C38.0489 47.9142 36.9759 48.3587 36.4324 49.2656L32.0587 56.5645C31.1268 58.1196 28.8732 58.1196 27.9413 56.5645L23.5676 49.2656C23.0241 48.3587 21.9511 47.9142 20.9255 48.1713L12.6718 50.2396C10.9132 50.6803 9.31966 49.0868 9.76037 47.3282L11.8287 39.0745C12.0858 38.0489 11.6413 36.9759 10.7344 36.4324L3.43551 32.0587C1.88035 31.1268 1.88035 28.8732 3.43551 27.9413L10.7344 23.5676C11.6413 23.0241 12.0858 21.9511 11.8287 20.9255L9.76037 12.6718C9.31966 10.9132 10.9132 9.31966 12.6718 9.76037L20.9255 11.8287C21.9511 12.0858 23.0241 11.6413 23.5676 10.7344L27.9413 3.43551Z" fill="#F7ECEC"/>
<path d="M35.8334 24.1667L24.1667 35.8334M35.8334 24.1667H25.3334M35.8334 24.1667V34.6667" stroke="black" stroke-width="2" stroke-linecap="round" stroke-linejoin="round"/>
</svg>
