<svg width="52" height="52" viewBox="0 0 52 52" fill="none" xmlns="http://www.w3.org/2000/svg">
<rect x="0.5" y="0.5" width="51" height="51" rx="3.5" stroke="#F5F5F5"/>
<path d="M39.3749 18.1151H31.0399V16.0451H39.3749V18.1151ZM25.4916 26.6051C26.0283 27.4384 26.2966 28.4489 26.2966 29.6367C26.2977 30.8656 25.9916 31.9667 25.3783 32.9401C25.0001 33.5717 24.5025 34.1237 23.9133 34.5651C23.2238 35.0853 22.4246 35.441 21.5766 35.6051C20.6146 35.7964 19.6357 35.8897 18.6549 35.8834H9.33325V15.1851H19.3299C21.8483 15.2267 23.6333 15.9567 24.6899 17.3901C25.3221 18.2701 25.6377 19.3239 25.6366 20.5517C25.6377 21.8151 25.3188 22.8306 24.6799 23.5984C24.3244 24.0295 23.7994 24.4223 23.1049 24.7767C24.1583 25.1601 24.9549 25.7695 25.4916 26.6051ZM14.1083 23.3467H18.4866C19.3866 23.3467 20.116 23.1756 20.6749 22.8334C21.2349 22.4912 21.5149 21.8845 21.5149 21.0134C21.5149 20.0489 21.1444 19.4123 20.4033 19.1034C19.7644 18.8889 18.9499 18.7812 17.9599 18.7801H14.1066L14.1083 23.3467ZM21.9366 29.3417C21.9366 28.2667 21.4966 27.5234 20.6199 27.1251C20.1277 26.8973 19.4377 26.7801 18.5499 26.7734H14.1066V32.2901H18.4833C19.3799 32.2912 20.0783 32.1701 20.5783 31.9267C21.4838 31.4767 21.9371 30.6151 21.9383 29.3417H21.9366ZM42.4666 25.9751C42.5688 26.6528 42.6116 27.6339 42.5949 28.9184H31.7999C31.8588 30.4073 32.3755 31.4501 33.3499 32.0467C33.9388 32.4189 34.651 32.6045 35.4866 32.6034C36.3677 32.6056 37.0844 32.3784 37.6366 31.9217C37.9377 31.6784 38.2032 31.3395 38.4333 30.9051H42.3899C42.2877 31.7851 41.8094 32.6784 40.9549 33.5851C39.6283 35.0273 37.7694 35.7489 35.3783 35.7501C33.406 35.7501 31.6649 35.1417 30.1549 33.9251C28.6494 32.7062 27.896 30.7262 27.8949 27.9851C27.8949 25.4139 28.5749 23.4439 29.9349 22.0751C31.3016 20.7017 33.0649 20.0184 35.2383 20.0184C36.5271 20.0184 37.6894 20.2495 38.7249 20.7117C39.7583 21.1739 40.6116 21.9056 41.2849 22.9067C41.8916 23.7889 42.286 24.8112 42.4683 25.9734L42.4666 25.9751ZM38.5716 26.3601C38.4994 25.3301 38.1544 24.5489 37.5366 24.0167C36.921 23.4834 36.1549 23.2162 35.2383 23.2151C34.2416 23.2173 33.471 23.5006 32.9266 24.0651C32.3766 24.6262 32.0321 25.3912 31.8933 26.3601H38.5716Z" fill="#F5F5F5"/>
</svg>
