<svg width="24" height="24" viewBox="0 0 24 24" fill="none" xmlns="http://www.w3.org/2000/svg">
<path d="M13.3361 13.4954C13.0516 13.4954 12.7641 13.5023 12.4734 13.516C12.1827 14.3614 12.1614 15.3474 12.4734 16.914C12.6921 18.0114 14.2461 21.1134 15.5294 22.2027C15.9847 22.5894 16.6214 22.792 17.3227 22.792C18.7521 22.792 20.4501 21.9487 21.4274 20.1027C23.4281 16.322 19.1114 13.4954 13.3361 13.4954Z" fill="#1C6399"/>
<path d="M22.4441 1.31531C22.3081 1.31531 22.1607 1.32997 22.0021 1.35931C19.8807 1.75997 15.8007 4.77664 12.4774 9.20664C12.4774 9.20664 11.9514 12.6466 11.9514 13.336C11.9514 13.56 12.7941 13.6693 13.9901 13.6693C16.4681 13.6693 20.4627 13.1993 21.6061 12.3086C22.8714 11.3226 24.0394 5.77264 23.9314 2.92264C23.9007 2.13931 23.4901 1.31531 22.4441 1.31531Z" fill="#1C6399"/>
<path d="M18.0653 9.29066L22.4847 9C22.4847 9 21.7813 11.4127 20.4167 12.104C19.052 12.7953 15.2707 13.104 15.2707 13.104C15.2707 13.104 16.824 10.2633 17.4613 9.57733C17.6193 9.40667 17.834 9.30533 18.0653 9.29066ZM18.412 7.98933L23.4293 2.55533C23.4293 2.55533 23.4307 6.132 22.6253 8.312C22.6253 8.312 19.0367 8.56467 18.6827 8.57267C18.214 8.58333 18.0367 8.396 18.412 7.98933ZM14.3667 13.104L18.0333 7.406C18.0949 7.3337 18.1376 7.24724 18.1575 7.15438C18.1774 7.06152 18.1739 6.96518 18.1473 6.874L17.502 4.71866L13.0207 9.12467L12.458 13.1453L14.3667 13.104ZM18.5747 5.92C18.6893 6.19066 18.9187 6.25333 19.2 6.00333C19.4813 5.75333 23.2493 1.94066 23.2 1.858C23.2 1.858 21.312 1.062 18 4.16666C18 4.16666 18.46 5.64933 18.5747 5.92ZM12.6247 13.986L16.2067 17.4713C16.2723 17.5289 16.3163 17.6071 16.3315 17.693C16.3466 17.779 16.332 17.8675 16.29 17.944L14.7067 20.8333C14.7067 20.8333 11.9153 17.1807 12.6247 13.986ZM17.4793 18.1867L21.1787 18.6807C21.1787 18.6807 20.4733 21.244 18.916 21.9167C16.312 23.042 15.3747 21.5 15.3747 21.5L16.9427 18.4587C16.9913 18.3619 17.0697 18.2833 17.1663 18.2344C17.2628 18.1854 17.3726 18.1687 17.4793 18.1867ZM13.5127 13.9027L17.096 17.208C17.148 17.2524 17.2078 17.2811 17.2753 17.294L21.3547 17.896C21.3547 17.896 20.542 15.8753 18.402 14.8753C15.9287 13.72 13.5127 13.9027 13.5127 13.9027Z" fill="#55ACEE"/>
<path d="M13.3361 13.4954C13.0516 13.4954 12.7641 13.5023 12.4734 13.516C12.1827 14.3614 12.1614 15.3474 12.4734 16.914C12.6921 18.0114 14.2461 21.1134 15.5294 22.2027C15.9847 22.5894 16.6214 22.792 17.3227 22.792C18.7521 22.792 20.4501 21.9487 21.4274 20.1027C23.4281 16.322 19.1114 13.4954 13.3361 13.4954ZM20.3607 19.7127C19.4834 21.37 18.3274 22.028 17.3221 22.028C16.8107 22.028 16.1861 21.8194 15.8887 21.5674C14.7587 20.608 13.5974 18.514 13.0554 16.7514C12.7454 15.7427 12.8194 14.07 12.8194 14.07L13.2641 14.056C16.7094 14.056 19.4301 15.428 20.4147 17.064C20.8907 17.8547 20.8727 18.746 20.3607 19.7127Z" fill="#292F33"/>
<path d="M22.4441 2.14864C22.5981 2.14864 23.0674 2.14864 23.0981 2.95397C23.1661 4.74131 22.7021 6.99464 22.1667 8.87531C21.8061 10.1426 21.1094 11.07 20.7707 11.3333C20.3974 11.624 19.5287 12.1586 18.2914 12.3753C16.9381 12.612 15.4867 12.9306 13.9874 12.9306C13.4361 12.9306 13.0321 12.9433 12.7914 12.9166C12.8787 12.1046 13.1174 10.5493 13.2694 9.54064C15.7814 6.24731 19.7434 2.63331 22.1567 2.17797C22.2603 2.15842 22.3561 2.14864 22.4441 2.14864ZM22.4441 1.31531C22.3081 1.31531 22.1607 1.32997 22.0021 1.35931C19.8807 1.75997 15.8007 4.77664 12.4774 9.20664C12.4774 9.20664 11.9514 12.6466 11.9514 13.336C11.9514 13.56 12.7941 13.6693 13.9901 13.6693C16.4681 13.6693 20.4627 13.1993 21.6061 12.3086C22.8714 11.3226 24.0394 5.77264 23.9314 2.92264C23.9007 2.13931 23.4901 1.31531 22.4441 1.31531Z" fill="#292F33"/>
<path d="M2.60133 20.1027C3.57866 21.9487 5.27599 22.792 6.70599 22.792C7.40733 22.792 8.04399 22.5894 8.49933 22.2027C9.78266 21.114 11.3367 18.012 11.5553 16.914C11.8673 15.3474 11.846 14.362 11.5553 13.516C11.268 13.5022 10.9803 13.4954 10.6927 13.4954C4.91599 13.4954 0.599992 16.322 2.60133 20.1027Z" fill="#1C6399"/>
<path d="M1.58395 1.31531C0.537947 1.31531 0.126613 2.13931 0.0972799 2.92197C-0.0107201 5.77197 1.15728 11.3226 2.42261 12.308C3.56595 13.1986 7.55995 13.6686 10.0386 13.6686C11.2346 13.6686 12.0773 13.5593 12.0773 13.3353C12.0773 12.6466 11.5513 9.20597 11.5513 9.20597C8.22728 4.77664 4.14661 1.75997 2.02595 1.35931C1.88029 1.33101 1.73232 1.31628 1.58395 1.31531Z" fill="#1C6399"/>
<path d="M5.96197 9.29066L1.5433 9C1.5433 9 2.24663 11.4127 3.6113 12.104C4.97597 12.7953 8.7573 13.104 8.7573 13.104C8.7573 13.104 7.20397 10.2633 6.56663 9.57733C6.40941 9.40761 6.19287 9.30495 5.96197 9.29066ZM5.61597 7.98933L0.598633 2.55533C0.598633 2.55533 0.5973 6.132 1.40263 8.312C1.40263 8.312 4.9913 8.56467 5.3453 8.57267C5.81397 8.58333 5.9913 8.396 5.61597 7.98933ZM9.6613 13.104L5.99463 7.406C5.93306 7.3337 5.89041 7.24724 5.87051 7.15438C5.85061 7.06152 5.85409 6.96518 5.88063 6.874L6.52597 4.71866L11.0073 9.12467L11.57 13.1453L9.6613 13.104ZM5.45263 5.92C5.33797 6.19066 5.10863 6.25333 4.8273 6.00333C4.54597 5.75333 0.777966 1.94066 0.8273 1.858C0.8273 1.858 2.7153 1.062 6.0273 4.16666C6.02797 4.16666 5.5673 5.64933 5.45263 5.92ZM11.4033 13.986L7.8213 17.4713C7.75568 17.5289 7.71166 17.6071 7.6965 17.693C7.68135 17.779 7.69598 17.8675 7.73797 17.944L9.3213 20.8327C9.32063 20.8333 12.1126 17.1807 11.4033 13.986ZM6.54797 18.1867L2.84863 18.6807C2.84863 18.6807 3.55397 21.244 5.1113 21.9167C7.7153 23.042 8.65263 21.5 8.65263 21.5L7.08463 18.4587C7.03598 18.3619 6.95762 18.2833 6.86104 18.2344C6.76446 18.1854 6.65474 18.1687 6.54797 18.1867ZM10.5153 13.9027L6.93197 17.208C6.88038 17.2513 6.8187 17.2809 6.75263 17.294L2.6733 17.896C2.6733 17.896 3.48597 15.8753 5.62597 14.8753C8.09863 13.72 10.5153 13.9027 10.5153 13.9027Z" fill="#55ACEE"/>
<path d="M2.60133 20.1027C3.57866 21.9487 5.27599 22.792 6.70599 22.792C7.40733 22.792 8.04399 22.5894 8.49933 22.2027C9.78266 21.114 11.3367 18.012 11.5553 16.914C11.8673 15.3474 11.846 14.362 11.5553 13.516C11.268 13.5022 10.9803 13.4954 10.6927 13.4954C4.91599 13.4954 0.599992 16.322 2.60133 20.1027ZM3.61333 17.0634C4.59799 15.4274 7.31866 14.0554 10.764 14.0554L11.2087 14.0694C11.2087 14.0694 11.2827 15.7427 10.9727 16.7507C10.4307 18.5134 9.26933 20.6074 8.13933 21.5667C7.84199 21.8194 7.21733 22.0274 6.70599 22.0274C5.70066 22.0274 4.54466 21.37 3.66733 19.712C3.15533 18.746 3.13733 17.8547 3.61333 17.0634Z" fill="#292F33"/>
<path d="M1.58395 2.14864C1.67195 2.14864 1.76772 2.15842 1.87128 2.17797C4.28395 2.63331 8.24661 6.24731 10.7586 9.54064C10.9106 10.5493 11.1493 12.1046 11.2366 12.9166C10.9959 12.9433 10.5919 12.9306 10.0406 12.9306C8.54128 12.9306 7.08995 12.612 5.73661 12.3753C4.49928 12.1586 3.63061 11.624 3.25728 11.3333C2.91861 11.0693 2.22195 10.1426 1.86128 8.87531C1.32595 6.99464 0.861947 4.74131 0.929947 2.95397C0.960613 2.14864 1.42928 2.14864 1.58395 2.14864ZM1.58395 1.31531C0.537947 1.31531 0.126613 2.13931 0.0972799 2.92197C-0.0107201 5.77197 1.15728 11.3226 2.42261 12.308C3.56595 13.1986 7.55995 13.6686 10.0386 13.6686C11.2346 13.6686 12.0773 13.5593 12.0773 13.3353C12.0773 12.6466 11.5513 9.20597 11.5513 9.20597C8.22728 4.77664 4.14661 1.75997 2.02595 1.35931C1.88029 1.33101 1.73232 1.31628 1.58395 1.31531Z" fill="#292F33"/>
<path d="M14.5914 3.17464C14.5519 3.15275 14.5084 3.13888 14.4635 3.13384C14.4186 3.12879 14.3731 3.13267 14.3297 3.14524C14.2863 3.15782 14.2457 3.17884 14.2105 3.20711C14.1752 3.23538 14.1458 3.27034 14.1241 3.30998L12.2974 6.62998C12.2854 6.65198 12.2828 6.67531 12.2761 6.69798C12.1914 6.69331 12.1134 6.68598 12.0141 6.68598C11.9154 6.68598 11.8368 6.69264 11.7528 6.69798C11.7461 6.67531 11.7434 6.65198 11.7314 6.62998L9.90478 3.30998C9.86075 3.22997 9.78675 3.17073 9.69904 3.14529C9.61134 3.11984 9.51712 3.13028 9.43711 3.17431C9.35711 3.21834 9.29787 3.29234 9.27242 3.38005C9.24698 3.46775 9.25742 3.56197 9.30145 3.64198L11.0714 6.85931C10.2854 7.38198 11.8381 9.15131 11.3254 12.9953C10.6368 18.162 12.0141 19.54 12.0141 19.54C12.0141 19.54 13.3921 18.162 12.7028 12.9953C12.1901 9.15131 13.7428 7.38198 12.9568 6.85931L14.7274 3.64198C14.7492 3.60237 14.763 3.55885 14.7679 3.51392C14.7729 3.46899 14.7689 3.42353 14.7563 3.38013C14.7437 3.33672 14.7226 3.29624 14.6943 3.26098C14.666 3.22572 14.6311 3.19638 14.5914 3.17464Z" fill="#292F33"/>
</svg>
