<svg width="52" height="52" viewBox="0 0 52 52" fill="none" xmlns="http://www.w3.org/2000/svg">
<rect x="0.5" y="0.5" width="51" height="51" rx="3.5" stroke="#F5F5F5"/>
<path d="M13.9167 9.125C12.9774 9.125 12.0765 9.49814 11.4123 10.1623C10.7481 10.8265 10.375 11.7274 10.375 12.6667C10.375 13.606 10.7481 14.5068 11.4123 15.171C12.0765 15.8352 12.9774 16.2083 13.9167 16.2083C14.856 16.2083 15.7568 15.8352 16.421 15.171C17.0852 14.5068 17.4583 13.606 17.4583 12.6667C17.4583 11.7274 17.0852 10.8265 16.421 10.1623C15.7568 9.49814 14.856 9.125 13.9167 9.125ZM10.5833 19.125C10.5281 19.125 10.4751 19.1469 10.436 19.186C10.3969 19.2251 10.375 19.2781 10.375 19.3333V41C10.375 41.115 10.4683 41.2083 10.5833 41.2083H17.25C17.3053 41.2083 17.3582 41.1864 17.3973 41.1473C17.4364 41.1082 17.4583 41.0553 17.4583 41V19.3333C17.4583 19.2781 17.4364 19.2251 17.3973 19.186C17.3582 19.1469 17.3053 19.125 17.25 19.125H10.5833ZM21.4167 19.125C21.3614 19.125 21.3084 19.1469 21.2694 19.186C21.2303 19.2251 21.2083 19.2781 21.2083 19.3333V41C21.2083 41.115 21.3017 41.2083 21.4167 41.2083H28.0833C28.1386 41.2083 28.1916 41.1864 28.2306 41.1473C28.2697 41.1082 28.2917 41.0553 28.2917 41V29.3333C28.2917 28.5045 28.6209 27.7097 29.207 27.1236C29.793 26.5376 30.5879 26.2083 31.4167 26.2083C32.2455 26.2083 33.0403 26.5376 33.6264 27.1236C34.2124 27.7097 34.5417 28.5045 34.5417 29.3333V41C34.5417 41.115 34.635 41.2083 34.75 41.2083H41.4167C41.4719 41.2083 41.5249 41.1864 41.564 41.1473C41.6031 41.1082 41.625 41.0553 41.625 41V26.6333C41.625 22.5883 38.1083 19.425 34.0833 19.79C32.8381 19.9042 31.6184 20.2124 30.4683 20.7033L28.2917 21.6367V19.3333C28.2917 19.2781 28.2697 19.2251 28.2306 19.186C28.1916 19.1469 28.1386 19.125 28.0833 19.125H21.4167Z" fill="#F5F5F5"/>
</svg>
